<svg version="1.1" xmlns="http://www.w3.org/2000/svg" xmlns:xlink="http://www.w3.org/1999/xlink" viewBox="0 0 256 76.8">
	<linearGradient id="GD1" gradientUnits="userSpaceOnUse" x1="7.9785" y1="606.3403" x2="2.9198" y2="602.4238" gradientTransform="matrix(4.0773 0 0 -4.0773 1.801024e-005 2479.3335)">
		<stop offset="0" style="stop-color:#00FFE5"/>
		<stop offset="0.1221" style="stop-color:#00F8E2"/>
		<stop offset="0.298" style="stop-color:#00E5D8"/>
		<stop offset="0.5064" style="stop-color:#00C6C9"/>
		<stop offset="0.7397" style="stop-color:#009AB3"/>
		<stop offset="0.991" style="stop-color:#006398"/>
		<stop offset="1" style="stop-color:#006197"/>
	</linearGradient>
	<linearGradient id="GD2" gradientUnits="userSpaceOnUse" x1="6.8163" y1="603.9905" x2="6.8163" y2="595.6081" gradientTransform="matrix(4.0773 0 0 -4.0773 1.801024e-005 2479.3335)">
		<stop offset="0" style="stop-color:#00FFE5"/>
		<stop offset="0.1221" style="stop-color:#00F8E2"/>
		<stop offset="0.298" style="stop-color:#00E5D8"/>
		<stop offset="0.5064" style="stop-color:#00C6C9"/>
		<stop offset="0.7397" style="stop-color:#009AB3"/>
		<stop offset="0.991" style="stop-color:#006398"/>
		<stop offset="1" style="stop-color:#006197"/>
	</linearGradient>
	<linearGradient id="GD3" gradientUnits="userSpaceOnUse" x1="13.6531" y1="595.2941" x2="0.5351" y2="595.2941" gradientTransform="matrix(4.0773 0 0 -4.0773 1.801024e-005 2479.3335)">
		<stop offset="0" style="stop-color:#00FFE5"/>
		<stop offset="0.1221" style="stop-color:#00F8E2"/>
		<stop offset="0.298" style="stop-color:#00E5D8"/>
		<stop offset="0.5064" style="stop-color:#00C6C9"/>
		<stop offset="0.7397" style="stop-color:#009AB3"/>
		<stop offset="0.991" style="stop-color:#006398"/>
		<stop offset="1" style="stop-color:#006197"/>
	</linearGradient>
	<path fill="#00FFE5" d="M256,23.7c0,1.8-1.1,3.2-3.2,3.2c-2.1,0-3.2-1.4-3.2-3.2c0-1.8,1.2-3.2,3.2-3.2C254.9,20.5,256,21.9,256,23.7z M252.8,26.1c1.4,0,2.3-1.1,2.3-2.5s-0.9-2.5-2.3-2.5c-1.4,0-2.3,1.1-2.3,2.5C250.6,25.1,251.4,26.1,252.8,26.1z M254.2,24.9l-0.5-0.5c-0.2,0.2-0.4,0.4-0.7,0.4c-0.5,0-0.9-0.4-0.9-0.9s0.5-0.9,0.9-0.9s0.5,0.2,0.7,0.4l0.5-0.7c-0.4-0.4-0.7-0.5-1.2-0.5c-1.1,0-1.8,0.7-1.8,1.8s0.7,1.8,1.8,1.8C253.5,25.4,253.9,25.2,254.2,24.9z"/>
	<path fill="url(#GD1)" d="M13.9,5.4L0.7,10.9c0,0-0.4,0.2-0.4,0.4s0,0.2,0,0.2L14,17.2L27.9,23l0,0l13.9-5.8l10.9-4.7c0,0,0.9-0.4,0.9-1.2c0-0.9-0.7-1.2-0.7-1.2l-11-4.6L29.1,0.2c0,0-0.5-0.2-1.2-0.2c-0.9,0-1.6,0.4-1.6,0.4L13.9,5.4z"/>
	<path fill="url(#GD2)" d="M55.6,34.5l-13.9-5.8L27.9,23l0,0l-14-6L0.2,11.4c0,0-0.2,0.2-0.2,0.4c0,0.2,0,0.4,0,0.4v10.7v9.1c0,0,0,1.6,1.1,2.6c0.9,0.9,1.6,1.1,1.6,1.1L14,40.3l13.9,5.8l0,0l0,0l0,0l0,0l13.9-5.8L55.6,34.5z"/>
	<path fill="url(#GD3)" d="M41.7,63.8L53,59.1c0,0,0.9-0.4,1.6-1.1c0.7-0.7,1.1-1.8,1.1-2.6c0-0.9,0-8.9,0-8.9V35.8v-0.9l-13.9,5.8l-13.9,5.8l0,0L14,52.3L3.2,56.8c0,0-0.9,0.4-0.9,1.2S3,59.3,3,59.3l11,4.6l12.4,5.3c0,0,0.7,0.4,1.6,0.4s1.6-0.4,1.6-0.4L41.7,63.8z"/>
	<path fill="#00FFE5" d="M109.9,29.3c-1.4-2.3-5.1-4.4-9.5-4.4c-5.6,0-8.2,2.3-8.2,5.3c0,3.5,4,4.4,8.9,5.1c8.2,1.1,16,3.2,16,12.6c0,8.9-7.9,12.6-16.7,12.6c-8.1,0-14.4-2.5-17.4-9.8l6.3-3.3c1.8,4.4,6.3,6.3,11.2,6.3c4.7,0,9.1-1.6,9.1-6c0-3.7-3.9-5.3-9.1-5.8C92.6,40.9,85,38.8,85,29.8c0-8.2,8.1-11.6,15.4-11.6c6.1,0,12.6,1.8,15.6,7.9L109.9,29.3z"/>
	<path fill="#00FFE5" d="M131.7,23.5c0,5.4-8.2,5.4-8.2,0C123.6,18.1,131.7,18.1,131.7,23.5z M124.1,31.2v28.2h6.8V31.2H124.1z"/>
	<path fill="#00FFE5" d="M161.1,28.6l5.1,3.9l-3.2,3.9c2.1,2.5,3,5.3,3,8.2c0,3.5-1.2,8.4-6,10.5c4.7,2.3,5.8,5.6,5.8,9.3c0,7.7-6,12.4-14,12.4s-14.2-4.9-14.2-12.4h6.8c0,3.7,3.3,6,7.4,6c4,0,7-2.1,7-6s-3.7-5.6-7-5.6c-8.8,0-14.2-5.4-14.2-14.2s6.3-14.2,14.2-14.2c2.3,0,4.6,0.4,6.5,1.6L161.1,28.6z M144.5,44.7c0,4.9,3.3,7.7,7.4,7.7c4,0,7.2-3,7.2-7.7c0-4.9-3.3-7.9-7.2-7.9C147.8,36.8,144.5,39.8,144.5,44.7z"/>
	<path fill="#00FFE5" d="M179.2,31.4v14.7c0,4.2,2.3,7.5,6.8,7.5c4.2,0,7.2-3.5,7.2-7.9V31.4h6.8v28.1h-6.1l-0.5-3.9c-3,2.8-5.6,4.2-9.5,4.2c-6.7,0-11.6-5.1-11.6-13.9V31.4H179.2z"/>
	<path fill="#00FFE5" d="M215.5,23.5c0,5.4-8.2,5.4-8.2,0C207.3,18.1,215.5,18.1,215.5,23.5z M207.8,31.2v28.2h7V31.2H207.8z"/>
	<path fill="#00FFE5" d="M232.5,23.5v7.9h7.7v6h-7.7v12.1c0,2.6,1.4,4,3.7,4c1.1,0,2.3-0.4,3.3-0.9l1.9,6c-1.9,0.9-3.7,1.1-5.8,1.2c-6.1,0.2-10-3.3-10-10.2V37.5h-5.3v-6.1h5.3v-7.2L232.5,23.5z"/>
</svg>