<svg version="1.1" xmlns="http://www.w3.org/2000/svg" xmlns:xlink="http://www.w3.org/1999/xlink" viewBox="0 0 141.3 86.8">
	<path fill="#D64A36" d="M23.1,26c0,0,3.3-4.4,8.7-7c0.5-0.2,0.8-1-0.6-1c-1.4,0-12.7,0-12.7,0s0-15.3,0-16.8s-0.9-1.6-2.7,0c-1.3,1.1-8.3,7.1-8.3,7.1V18H0v8h7.4v16.5c0,12,6.9,21.4,13.7,25c1.8-1.5,8.4-7.2,8.4-7.2l-2.9-2c-4.9-3.5-8.2-9.3-8.2-15.8V26H23.1z"/>
	<path fill="#D64A36" d="M121.9,20.7c-3.4,0-6.7,0.9-9.5,2.5l1.6-1.3c0,0,0.2-1.1-1-1.1c-1.2,0-12,0-12,0L90.2,30V0.8c0,0-0.5-1.4-1.9-0.4s-9.3,7.9-9.3,7.9v12.5h-3.4L64.9,30V0.8c0,0-0.5-1.4-1.9-0.4c-1.3,1-9.3,8-9.3,8v17.7c-3.5-3.3-8.2-5.3-13.3-5.3C29.7,20.8,21,29.5,21,40.2c0,10.7,8.7,19.4,19.4,19.4c5.2,0,9.8-2,13.3-5.3v5.3h11.1V47.9l10.8,11.7h3.4h10.9h0.3V47.9L101,59.6c0,0,10.8,0,12.5,0c1.7,0,0.7-1.1,0.7-1.1l-0.7-0.7c2.5,1.2,5.4,1.9,8.4,1.9c10.7,0,19.4-8.7,19.4-19.4C141.3,29.4,132.6,20.7,121.9,20.7z M32.2,40.2c0-4.5,3.7-8.2,8.2-8.2c4.5,0,8.2,3.7,8.2,8.2c0,4.5-3.7,8.2-8.2,8.2C35.9,48.4,32.2,44.7,32.2,40.2z M70.7,37.3c0.8-0.7,8.4-7.2,8.4-7.2v17.8c0,0-7.6-8.2-8.4-9C69.9,38,69.9,38,70.7,37.3z M96,37.3c0.8-0.7,10.5-9.1,10.5-9.1c-2.5,3.3-4,7.4-4,11.9c0,2.5,0.5,4.9,1.3,7.1c0,0-7.1-7.6-7.8-8.4C95.2,38,95.2,38,96,37.3z M121.9,48.3c-4.5,0-8.2-3.7-8.2-8.2c0-4.5,3.7-8.2,8.2-8.2c4.5,0,8.2,3.7,8.2,8.2C130.1,44.7,126.4,48.3,121.9,48.3z"/>
	<path fill="#E8EBEF" d="M40.3,65.1h1.1v9.2h0.1c0.9-2.4,3.3-3.6,5.8-3.6c4.5,0,6.7,3.4,6.7,7.7c0,7.3-4.5,8.4-6.7,8.4c-4,0-5.6-3-5.8-3.8h-0.1v3.4h-1.1L40.3,65.1z M52.8,78.4c0-3.4-1.9-6.7-5.5-6.7c-4,0-5.9,2.8-5.9,6.7c0,3.8,1.7,7.4,5.9,7.4C51.3,85.8,52.8,81.9,52.8,78.4z"/>
	<path fill="#E8EBEF" d="M56.3,74.5L56.3,74.5c0.7-2,3.2-3.6,6-3.5v1.1c-1.2-0.1-2.9,0.2-4.2,1.5c-1.1,1.2-1.6,2.1-1.7,4.4v8.4h-1.1V71h1.1L56.3,74.5L56.3,74.5z"/>
	<path fill="#E8EBEF" d="M68.3,70.7c4.5,0,7.1,3.7,7.1,8s-2.5,8-7.1,8s-7.1-3.7-7.1-8S63.8,70.7,68.3,70.7z M68.3,85.8c3.9,0,5.9-3.4,5.9-7.1s-2.1-7.1-5.9-7.1c-3.9,0-5.9,3.4-5.9,7.1S64.4,85.8,68.3,85.8z"/>
	<path fill="#E8EBEF" d="M76.5,65.1h1.1v14.1l9.5-8.2h1.6l-6.7,5.7l7.2,9.6h-1.6l-6.5-8.8l-3.5,3v5.8h-1.1V65.1z"/>
	<path fill="#E8EBEF" d="M89.3,78.9c-0.1,3.6,1.9,6.9,5.7,6.9c2.9,0,5-1.7,5.5-4.6h1.1c-0.6,3.6-3,5.6-6.6,5.6c-4.5,0-6.8-3.5-6.8-7.8c-0.1-4.2,2.2-8.3,6.8-8.3c4.8,0,7,3.8,6.8,8.2L89.3,78.9L89.3,78.9z M100.5,77.9c-0.1-3.2-2.1-6.2-5.6-6.2c-3.4,0-5.4,3.2-5.7,6.2H100.5z"/>
	<path fill="#E8EBEF" d="M104,74.5L104,74.5c0.7-2,3.2-3.6,6-3.5v1.1c-1.2-0.1-2.9,0.2-4.2,1.5c-1.1,1.2-1.6,2.1-1.7,4.4v8.4h-1.1V71h1.1L104,74.5L104,74.5z"/>
</svg>